<svg version="1.0" xmlns="http://www.w3.org/2000/svg" width="512pt" height="512pt" viewBox="0 0 512 512"><g transform="translate(0.000000,512.000000) scale(0.100000,-0.100000)" fill="#000" stroke="none"><path d="M1940 4766l-605-353-2-724-3-724 615-357 615-357 621 362 621 362-7 715c-4 393-10 718-13 722-17 16-1212 708-1224 707-7 0-285-159-618-353zm1045-187c228-133 412-245 410-249-3-5-191-117-419-249l-413-242-422 247c-232 135-419 249-416 252 15 15 822 481 833 481 7 1 2e2-108 427-240zm-555-1456c0-272-3-492-7-490-5 2-194 111-420 243l-413 239v496 497l420-246 420-245v-494zm1110 494v-494l-392-228c-216-126-408-238-425-248l-33-19v494l1 493 422 247c232 136 423 247 425 247 1 1 2-221 2-492z"/><path d="M663 2512 50 2155l1-725V705l604-350C988 163 1267 4 1277 3c10-1 292 159 628 355l609 357-3 715c-1 393-6 718-10 723-7 7-1222 718-1225 716-1 0-277-161-613-357zm1039-190 424-247-422-247-422-247-417 244c-229 134-417 247-418 251-1 5 512 311 829 493 1 1 192-110 426-247zm-859-784 307-180V863 369l-58 33c-32 18-221 128-420 243L310 855v497 497l113-65c61-37 250-147 420-246zm1417-185-1-488-382-223c-210-122-401-234-424-248l-43-25v493 494l413 242c226 133 418 241 425 242 9 0 12-104 12-487z"/><path d="M3220 2510l-615-358v-81c0-44 2-370 3-723l2-643 603-350C3544 163 3824 6 3835 5c11 0 293 160 628 355l607 354-2 719-3 719-565 330c-311 181-587 342-615 358l-50 28-615-358zm1085-215c204-118 369-218 368-221-1-4-189-116-418-250l-417-243-423 248-424 248 422 246 422 246 50-29c28-16 217-126 420-245zm-1012-695 417-243V862c0-271-4-492-8-490-5 2-193 110-419 242l-410 238-6 127c-9 175-9 873 1 868 4-2 195-113 425-247zm1517-244V863l-420-246-420-245v493 493l418 245c229 135 418 246 420 246 1 1 2-221 2-493z"/></g></svg>