<svg version="1.0" xmlns="http://www.w3.org/2000/svg" width="500pt" height="500pt" viewBox="0 0 500 500"><g transform="translate(0.000000,500.000000) scale(0.100000,-0.100000)" fill="#000" stroke="none"><path d="M1645 4313c-171-38-275-76-530-196-236-110-370-164-467-187-117-28-322-50-461-50-113 0-152-8-169-34-4-6-8-713-8-1572V713l21-19c21-19 76-19 2474-19 2398 0 2453 0 2474 19l21 19v1562c0 1328-2 1564-14 1580-13 18-32 20-198 26-368 14-481 44-886 233-352 165-456 197-662 203-120 4-162 1-245-16-191-39-358-147-453-292l-39-59-36 59c-87 140-260 253-447 291-89 19-316 26-375 13zm285-245c134-31 296-148 404-291l36-49V2348 968l-59 51c-91 79-220 155-318 187-82 27-99 29-233 28-228-2-423-44-822-179-123-41-293-93-378-114-155-39-316-69-325-60-2 3-1 635 2 1406l6 14e2 131 7c170 9 311 29 466 67 144 36 226 66 475 177 325 144 445 169 615 130zm1510-27c47-16 171-67 276-114 234-104 305-130 458-168 146-35 294-56 459-65l125-7 6-141c3-78 7-709 10-1404l4-1262h-25c-42 0-270 49-398 85-66 19-214 66-330 105-363 122-637 177-835 168-164-8-323-77-477-207l-73-61v1379 1379l46 61c118 157 304 274 463 290 90 9 189-4 291-38z"/></g></svg>