<svg version="1.0" xmlns="http://www.w3.org/2000/svg" width="512pt" height="512pt" viewBox="0 0 512 512"><g transform="translate(0.000000,512.000000) scale(0.100000,-0.100000)" fill="#000" stroke="none"><path d="M4451 4478c-27-7-286-260-1150-1122-1307-1304-1297-1293-1336-1317-38-24-101-24-141-1-18 9-275 265-572 568-485 493-546 552-585 563-85 24-102 13-378-235-138-124-259-240-270-257-25-42-25-121-1-162 19-31 702-750 1143-1205 365-377 625-633 661-653 41-21 99-22 141-1 37 19 3121 3096 3143 3136 17 33 18 115 1 144-7 12-124 137-262 277-209 213-257 257-290 266-47 13-58 13-104-1z"/></g></svg>