<svg version="1.0" xmlns="http://www.w3.org/2000/svg" width="512pt" height="512pt" viewBox="0 0 512 512"><g transform="translate(0.000000,512.000000) scale(0.100000,-0.100000)" fill="#000" stroke="none"><path d="M2420 4903c-325-33-643-135-914-291-48-29-92-49-97-46-5 3-8 1-7-4 2-5-33-35-77-67-251-180-465-409-621-666-63-104-149-279-185-377-12-35-28-66-35-69-6-2-66 2-134 10-110 12-121 12-117-2 11-43 421-961 428-959 4 2 141 185 304 408 164 223 304 413 313 423 8 9 13 19 10 22-3 3-48 10-99 16-52 5-104 12-116 15l-22 4 26 58c74 169 214 363 369 512 110 106 157 143 169 132 5-4 5-2 2 4-8 14 99 84 238 155 261 135 558 199 855 185 74-3 144-9 156-12 19-5 22 6 59 260 21 147 36 268 34 270-19 20-405 33-539 19z"/><path d="M3693 4573c-266-2-483-6-483-9 0-11 532-914 539-914 4 0 28 37 54 83 76 135 64 131 136 46 354-419 488-972 366-1506-64-279-221-574-414-776l-46-47 193-193 193-192 51 55c232 254 393 524 496 836 79 236 112 443 112 709 0 353-67 653-217 965-111 234-245 427-422 610-99 102-113 119-89 104 7-4 8-3 4 4-4 6 20 59 54 116 33 58 60 107 60 110 0 4-24 5-52 4-29-2-270-4-535-5z"/><path d="M698 2183l-258-65 6-27c17-72 72-228 115-328 132-309 345-598 606-820 39-34 68-64 65-68-4-4-2-5 4-3 7 2 40-18 75-43 285-208 635-348 1009-406 156-23 462-23 620 0 63 10 123 19 134 20 15 2 29-22 70-115 28-65 54-118 57-118 4 0 147 195 319 433l312 432-59 7c-32 4-260 28-508 53-247 24-460 46-472 48-13 3-23-1-23-8 0-6 20-56 45-111l44-99-32-7c-58-14-348-9-452 7-180 28-350 82-516 165-104 53-209 119-209 131 0 6-4 8-8 5-5-3-25 10-45 28-20 18-38 31-41 29-10-11-257 251-318 337-111 157-208 358-253 523-10 37-21 67-24 66-3 0-122-30-263-66z"/></g></svg>